<svg xmlns="http://www.w3.org/2000/svg" width="61.219" height="61.218" viewBox="0 0 61.219 61.218">
  <g id="Group_39288" data-name="Group 39288" transform="translate(-168.571)">
    <path id="Path_17202" data-name="Path 17202" d="M1370.821,140.976,1340,162.471a17.273,17.273,0,0,1-9.881,3.106h-18.789l30.816-21.5a17.272,17.272,0,0,1,9.882-3.106Z" transform="translate(-1141.031 -122.667)" fill="#ff4715"/>
    <path id="Path_17203" data-name="Path 17203" d="M1359.219,0V5.853l-11.177.012a16.473,16.473,0,0,0-9.426,2.962l-18.192,12.689H1298l26.392-18.41A17.272,17.272,0,0,1,1334.275,0Z" transform="translate(-1129.43)" fill="#ff4715"/>
    <path id="Path_17204" data-name="Path 17204" d="M1298,327.22v-5.853l11.177-.012a16.475,16.475,0,0,0,9.426-2.962L1336.8,305.7h22.423l-26.392,18.41a17.273,17.273,0,0,1-9.882,3.106Z" transform="translate(-1129.43 -266.002)" fill="#ff4715"/>
  </g>
</svg>
