<svg id="Group_39287" data-name="Group 39287" xmlns="http://www.w3.org/2000/svg" xmlns:xlink="http://www.w3.org/1999/xlink" width="994.466" height="342.673" viewBox="0 0 994.466 342.673">
  <defs>
    <clipPath id="clip-path">
      <rect id="Rectangle_4316" data-name="Rectangle 4316" width="994.466" height="342.673" fill="none"/>
    </clipPath>
  </defs>
  <g id="Group_39286" data-name="Group 39286" transform="translate(0 0)" clip-path="url(#clip-path)">
    <path id="Path_17287" data-name="Path 17287" d="M530.261,171.337,678.025,70.292A135.669,135.669,0,0,1,754.585,46.7l90.784-.1V0h-202.6A142.237,142.237,0,0,0,562.5,24.734l-214.367,146.6h.017L200.39,272.381a135.669,135.669,0,0,1-76.561,23.588l-90.784.1v46.609h202.6a142.244,142.244,0,0,0,80.262-24.735l214.367-146.6Z" transform="translate(58.026 -0.002)" fill="#ff4715"/>
    <path id="Path_17288" data-name="Path 17288" d="M329.888,70.291A135.669,135.669,0,0,1,406.449,46.7l90.784-.1V0h-202.6a142.25,142.25,0,0,0-80.265,24.732L0,171.335H182.125Z" transform="translate(0 0)" fill="#ff4715"/>
    <path id="Path_17289" data-name="Path 17289" d="M495.529,62.169,347.766,163.213a135.669,135.669,0,0,1-76.56,23.588l-90.784.1v46.609h202.6a142.237,142.237,0,0,0,80.262-24.735l214.367-146.6Z" transform="translate(316.812 109.166)" fill="#ff4715"/>
  </g>
</svg>
