<svg xmlns="http://www.w3.org/2000/svg" width="173.258" height="38.782" viewBox="0 0 173.258 38.782">
  <g id="Group_39251" data-name="Group 39251" transform="translate(-1684 -8661.217)">
    <path id="Path_17202" data-name="Path 17202" d="M1349.019,140.976,1329.5,154.593a10.942,10.942,0,0,1-6.26,1.968h-11.9l19.522-13.617a10.942,10.942,0,0,1,6.26-1.968Z" transform="translate(508.239 8531.84)" fill="#fff"/>
    <path id="Path_17203" data-name="Path 17203" d="M1336.783,0V3.708l-7.081.008a10.437,10.437,0,0,0-5.971,1.877l-11.525,8.039H1298l16.719-11.663A10.943,10.943,0,0,1,1320.981,0Z" transform="translate(520.197 8661.217)" fill="#fff"/>
    <path id="Path_17204" data-name="Path 17204" d="M1298,319.335v-3.708l7.081-.008a10.437,10.437,0,0,0,5.971-1.877l11.525-8.039h14.2l-16.72,11.663a10.942,10.942,0,0,1-6.26,1.968Z" transform="translate(520.197 8380.664)" fill="#fff"/>
    <g id="Group_39250" data-name="Group 39250" transform="translate(2 2)">
      <path id="Path_17273" data-name="Path 17273" d="M11.65,244.1l-3.475-.372c-2.164-.226-2.535-.711-2.535-1.425,0-1.507,1.968-1.623,3.277-1.623,1.452,0,3.106.458,3.39,2.023h5.526c-.369-2.819-1.965-5.157-9.029-5.157-4.189,0-8.348,1-8.348,5.129,0,2.9,1.794,3.875,5.013,4.33l4.559.626c2.423.372,2.85.656,2.85,1.538,0,1.111-1.339,1.654-3.619,1.654-2.594,0-3.5-.827-3.732-2.166H0c.256,3.646,3.161,5.3,8.974,5.3,4.357,0,9.428-.628,9.428-5.156,0-2.649-1.654-4.159-6.752-4.7" transform="translate(1682 8439.043)" fill="#fff"/>
      <path id="Path_17274" data-name="Path 17274" d="M209.751,247.091v-.458c0-5.724-3.192-9.087-9.8-9.087-6.038,0-10.084,2.423-10.084,8.2s4.046,8.2,10.084,8.2c4.586,0,8.061-1.51,9.514-5.129h-5.355c-.711,1.339-2.108,2-4.159,2-3.417,0-4.9-2.221-4.9-3.674v-.058Zm-14.7-3.021c0-.342.8-3.39,4.787-3.39,3.646,0,4.727,2.566,4.727,3.39v.058H195.05Z" transform="translate(1511.647 8439.043)" fill="#fff"/>
      <path id="Path_17275" data-name="Path 17275" d="M397.632,213.887c-1.34,0-1.681-.369-1.681-1.593v-7.122H400V201.81h-4.046v-4.729h-5.013v4.729h-3.161v3.362h3.161v7.72c0,2.762.457,4.528,5.214,4.528a33.922,33.922,0,0,0,3.93-.284v-3.362a22.411,22.411,0,0,1-2.45.113" transform="translate(1334.077 8475.35)" fill="#fff"/>
      <path id="Path_17276" data-name="Path 17276" d="M523.419,250.423c-3.106,0-4.9-1.681-4.9-4.671s1.794-4.672,4.9-4.672c2.023,0,3.561.656,4.159,2.679h5.184c-.912-5.044-5.5-6.212-9.343-6.212-6.039,0-10.084,2.423-10.084,8.2s3.875,8.2,9.657,8.2c4.986,0,8.858-1.226,9.77-6.637h-5.184c-.256,1.935-1.91,3.1-4.159,3.1" transform="translate(1221.422 8439.043)" fill="#fff"/>
      <path id="Path_17277" data-name="Path 17277" d="M723.259,237.547c-6.039,0-10.084,2.423-10.084,8.2s4.046,8.2,10.084,8.2,10.084-2.423,10.084-8.2-4.046-8.2-10.084-8.2m0,12.876c-3.1,0-4.9-1.681-4.9-4.671s1.8-4.672,4.9-4.672,4.9,1.681,4.9,4.672-1.794,4.671-4.9,4.671" transform="translate(1042.121 8439.043)" fill="#fff"/>
      <path id="Path_17278" data-name="Path 17278" d="M934.6,246.589V242.88h-4.366v15.268h5.013v-6.581c0-2.96,1.593-4.7,5.041-4.7a10.212,10.212,0,0,1,2.764.455l0-4.459c-3.826,0-8.45-.367-8.45,3.726" transform="translate(847.369 8434.279)" fill="#fff"/>
      <path id="Path_17279" data-name="Path 17279" d="M1080.1,247.091v-.458c0-5.724-3.191-9.087-9.8-9.087-6.038,0-10.084,2.423-10.084,8.2s4.046,8.2,10.084,8.2c4.586,0,8.062-1.51,9.514-5.129h-5.355c-.711,1.339-2.108,2-4.159,2-3.417,0-4.9-2.221-4.9-3.674v-.058Zm-14.7-3.021c0-.342.8-3.39,4.787-3.39,3.646,0,4.727,2.566,4.727,3.39v.058H1065.4Z" transform="translate(730.746 8439.043)" fill="#fff"/>
    </g>
  </g>
</svg>
