<svg id="Group_39217" data-name="Group 39217" xmlns="http://www.w3.org/2000/svg" xmlns:xlink="http://www.w3.org/1999/xlink" width="229.79" height="61.218" viewBox="0 0 229.79 61.218">
  <defs>
    <clipPath id="clip-path">
      <rect id="Rectangle_4184" data-name="Rectangle 4184" width="229.79" height="61.218" fill="none"/>
    </clipPath>
  </defs>
  <g id="Group_39211" data-name="Group 39211" clip-path="url(#clip-path)">
    <path id="Path_17195" data-name="Path 17195" d="M14.722,245.829l-4.392-.47c-2.734-.286-3.2-.9-3.2-1.8,0-1.9,2.486-2.051,4.141-2.051,1.835,0,3.925.578,4.284,2.556h6.983c-.467-3.563-2.483-6.516-11.409-6.516-5.294,0-10.549,1.261-10.549,6.481,0,3.671,2.267,4.9,6.335,5.471l5.761.791c3.061.47,3.6.829,3.6,1.943,0,1.4-1.693,2.09-4.573,2.09-3.277,0-4.427-1.045-4.716-2.737H0c.324,4.608,3.995,6.7,11.34,6.7,5.506,0,11.914-.794,11.914-6.516,0-3.347-2.09-5.255-8.533-5.938" transform="translate(0 -206.697)"/>
    <path id="Path_17196" data-name="Path 17196" d="M214.994,249.608v-.578c0-7.233-4.033-11.482-12.385-11.482-7.631,0-12.743,3.061-12.743,10.368s5.113,10.368,12.743,10.368c5.8,0,10.187-1.908,12.022-6.481h-6.767c-.9,1.693-2.664,2.521-5.255,2.521-4.319,0-6.192-2.807-6.192-4.642v-.073Zm-18.577-3.817c0-.432,1.01-4.284,6.049-4.284,4.608,0,5.973,3.242,5.973,4.284v.073H196.417Z" transform="translate(-165.208 -206.697)"/>
    <path id="Path_17197" data-name="Path 17197" d="M400.23,218.319c-1.693,0-2.125-.467-2.125-2.013v-9h5.113v-4.249h-5.113v-5.976h-6.335v5.976h-3.995v4.249h3.995v9.755c0,3.49.578,5.722,6.589,5.722a42.86,42.86,0,0,0,4.966-.359v-4.249a28.321,28.321,0,0,1-3.1.143" transform="translate(-337.415 -171.486)"/>
    <path id="Path_17198" data-name="Path 17198" d="M526.078,253.818c-3.925,0-6.192-2.124-6.192-5.9s2.267-5.9,6.192-5.9c2.556,0,4.5.829,5.255,3.385h6.551c-1.153-6.373-6.948-7.85-11.806-7.85-7.631,0-12.743,3.061-12.743,10.368s4.9,10.368,12.2,10.368c6.3,0,11.193-1.55,12.346-8.386h-6.551c-.324,2.445-2.414,3.921-5.255,3.921" transform="translate(-446.668 -206.697)"/>
    <path id="Path_17199" data-name="Path 17199" d="M725.917,237.547c-7.631,0-12.743,3.061-12.743,10.368s5.113,10.368,12.743,10.368,12.743-3.061,12.743-10.368-5.113-10.368-12.743-10.368m0,16.271c-3.922,0-6.192-2.124-6.192-5.9s2.271-5.9,6.192-5.9,6.192,2.125,6.192,5.9-2.267,5.9-6.192,5.9" transform="translate(-620.554 -206.697)"/>
    <path id="Path_17200" data-name="Path 17200" d="M935.75,247.573v-4.687h-5.517v19.294h6.335v-8.317c0-3.74,2.013-5.938,6.37-5.938a12.9,12.9,0,0,1,3.493.575l0-5.635c-4.834,0-10.678-.463-10.678,4.708" transform="translate(-809.424 -211.315)"/>
    <path id="Path_17201" data-name="Path 17201" d="M1085.343,249.608v-.578c0-7.233-4.033-11.482-12.385-11.482-7.63,0-12.743,3.061-12.743,10.368s5.113,10.368,12.743,10.368c5.8,0,10.187-1.908,12.022-6.481h-6.767c-.9,1.693-2.664,2.521-5.255,2.521-4.319,0-6.192-2.807-6.192-4.642v-.073Zm-18.577-3.817c0-.432,1.01-4.284,6.049-4.284,4.608,0,5.973,3.242,5.973,4.284v.073h-12.022Z" transform="translate(-922.525 -206.697)"/>
    <path id="Path_17202" data-name="Path 17202" d="M1370.821,140.976,1340,162.471a17.273,17.273,0,0,1-9.881,3.106h-18.789l30.816-21.5a17.272,17.272,0,0,1,9.882-3.106Z" transform="translate(-1141.031 -122.667)" fill="#ff4715"/>
    <path id="Path_17203" data-name="Path 17203" d="M1359.219,0V5.853l-11.177.012a16.473,16.473,0,0,0-9.426,2.962l-18.192,12.689H1298l26.392-18.41A17.272,17.272,0,0,1,1334.275,0Z" transform="translate(-1129.43 0)" fill="#ff4715"/>
    <path id="Path_17204" data-name="Path 17204" d="M1298,327.22v-5.853l11.177-.012a16.475,16.475,0,0,0,9.426-2.962L1336.8,305.7h22.423l-26.392,18.41a17.273,17.273,0,0,1-9.882,3.106Z" transform="translate(-1129.43 -266.002)" fill="#ff4715"/>
  </g>
</svg>
