<svg id="Group_39212" data-name="Group 39212" xmlns="http://www.w3.org/2000/svg" xmlns:xlink="http://www.w3.org/1999/xlink" width="1685" height="448.901" viewBox="0 0 1685 448.901">
  <defs>
    <clipPath id="clip-path">
      <rect id="Rectangle_4184" data-name="Rectangle 4184" width="1685" height="448.901" fill="none"/>
    </clipPath>
  </defs>
  <g id="Group_39211" data-name="Group 39211" clip-path="url(#clip-path)">
    <path id="Path_17195" data-name="Path 17195" d="M107.95,298.278l-32.2-3.448c-20.048-2.094-23.494-6.589-23.494-13.2,0-13.968,18.233-15.041,30.364-15.041,13.458,0,28.782,4.24,31.412,18.744h51.2c-3.422-26.126-18.208-47.782-83.663-47.782-38.818,0-77.354,9.245-77.354,47.526,0,26.918,16.624,35.907,46.454,40.121l42.241,5.8c22.448,3.447,26.406,6.078,26.406,14.25,0,10.293-12.411,15.323-33.531,15.323-24.032,0-32.459-7.661-34.579-20.073H0c2.375,33.787,29.293,49.11,83.153,49.11,40.376,0,87.366-5.823,87.366-47.781,0-24.544-15.323-38.537-62.569-43.542" transform="translate(0 -11.329)" fill="#fff"/>
    <path id="Path_17196" data-name="Path 17196" d="M374.124,325.985v-4.24c0-53.041-29.573-84.2-90.814-84.2-55.954,0-93.444,22.448-93.444,76.028S227.356,389.6,283.31,389.6c42.5,0,74.7-13.994,88.158-47.526H321.847c-6.588,12.411-19.537,18.489-38.537,18.489-31.667,0-45.406-20.584-45.406-34.042v-.537ZM237.9,298c0-3.166,7.406-31.412,44.359-31.412,33.789,0,43.8,23.776,43.8,31.412v.536H237.9Z" transform="translate(-9.055 -11.329)" fill="#fff"/>
    <path id="Path_17197" data-name="Path 17197" d="M479.1,352.813c-12.412,0-15.579-3.423-15.579-14.762v-65.99h37.49V240.9h-37.49V197.081H417.069V240.9H387.776v31.157h29.293v71.533c0,25.589,4.239,41.959,48.318,41.959a314.337,314.337,0,0,0,36.416-2.63V351.766a207.644,207.644,0,0,1-22.7,1.048" transform="translate(-18.493 -9.399)" fill="#fff"/>
    <path id="Path_17198" data-name="Path 17198" d="M606.779,356.861c-28.782,0-45.408-15.577-45.408-43.286S578,270.286,606.779,270.286c18.744,0,33,6.079,38.537,24.824h48.037c-8.454-46.735-50.949-57.563-86.575-57.563-55.955,0-93.444,22.448-93.444,76.028s35.9,76.027,89.486,76.027c46.2,0,82.079-11.365,90.532-61.5H645.316c-2.374,17.927-17.7,28.755-38.537,28.755" transform="translate(-24.481 -11.329)" fill="#fff"/>
    <path id="Path_17199" data-name="Path 17199" d="M806.62,237.547c-55.955,0-93.445,22.448-93.445,76.028S750.665,389.6,806.62,389.6s93.443-22.448,93.443-76.027-37.49-76.028-93.443-76.028m0,119.314c-28.757,0-45.408-15.577-45.408-43.286s16.651-43.288,45.408-43.288c28.782,0,45.406,15.579,45.406,43.288S835.4,356.861,806.62,356.861" transform="translate(-34.011 -11.329)" fill="#fff"/>
    <path id="Path_17200" data-name="Path 17200" d="M970.685,277.457v-34.37H930.233V384.568h46.454V323.583c0-27.427,14.761-43.542,46.71-43.542,8.708,0,17.161,1.839,25.614,4.214l-.025-41.322c-35.448,0-78.3-3.4-78.3,34.524" transform="translate(-44.363 -11.582)" fill="#fff"/>
    <path id="Path_17201" data-name="Path 17201" d="M1244.473,325.985v-4.24c0-53.041-29.572-84.2-90.814-84.2-55.953,0-93.444,22.448-93.444,76.028s37.49,76.027,93.444,76.027c42.5,0,74.7-13.994,88.159-47.526H1192.2c-6.589,12.411-19.537,18.489-38.538,18.489-31.667,0-45.406-20.584-45.406-34.042v-.537ZM1108.252,298c0-3.166,7.406-31.412,44.361-31.412,33.787,0,43.8,23.776,43.8,31.412v.536h-88.158Z" transform="translate(-50.562 -11.329)" fill="#fff"/>
    <path id="Path_17202" data-name="Path 17202" d="M1747.538,140.976,1521.572,298.6a126.656,126.656,0,0,1-72.459,22.775H1311.334L1537.3,163.751a126.649,126.649,0,0,1,72.46-22.775Z" transform="translate(-62.538 -6.723)" fill="#ff4715"/>
    <path id="Path_17203" data-name="Path 17203" d="M1746.9,0V42.919l-81.961.089a120.8,120.8,0,0,0-69.118,21.721l-133.4,93.047H1298l193.528-135A126.656,126.656,0,0,1,1563.992,0Z" transform="translate(-61.902)" fill="#ff4715"/>
    <path id="Path_17204" data-name="Path 17204" d="M1298,463.48V420.561l81.961-.089a120.809,120.809,0,0,0,69.119-21.721l133.4-93.047H1746.9l-193.528,135a126.656,126.656,0,0,1-72.462,22.776Z" transform="translate(-61.902 -14.579)" fill="#ff4715"/>
  </g>
</svg>
