<svg xmlns="http://www.w3.org/2000/svg" width="92.927" height="93.757" viewBox="0 0 92.927 93.757">
  <path id="Path_17285" data-name="Path 17285" d="M758.285,50.251h-1.094a5.044,5.044,0,0,0-4.993,4.376H740.959a27,27,0,0,0-10.873-11.368V29.779a5.583,5.583,0,0,0-1.056-11.066h-.757a5.819,5.819,0,0,0-5.392-5.118V6.34h16.712a3.169,3.169,0,0,0,0-6.338H696.135a3.169,3.169,0,1,0,0,6.338h16.674v7.245a5.818,5.818,0,0,0-5.619,5.129h-1.1a5.583,5.583,0,0,0-.453,11.148V42.333a26.971,26.971,0,0,0-12.684,12.294H681.718a5.044,5.044,0,0,0-4.993-4.376h-1.094a5.042,5.042,0,0,0-5.036,5.036V77.809a5.042,5.042,0,0,0,5.036,5.036h1.094a5.045,5.045,0,0,0,4.944-4.074h11.289a26.876,26.876,0,0,0,48,0h11.289a5.044,5.044,0,0,0,4.944,4.074h1.094a5.042,5.042,0,0,0,5.036-5.036V55.287a5.042,5.042,0,0,0-5.036-5.036M696.135,4.831a1.66,1.66,0,1,1,0-3.32h43.458a1.66,1.66,0,0,1,0,3.32H696.135Zm25.237,8.563h-7.054V6.34h7.054Zm-8.413,1.7H722.5a4.308,4.308,0,0,1,4.234,3.546H708.725a4.308,4.308,0,0,1,4.234-3.546M680.252,77.809a3.531,3.531,0,0,1-3.527,3.527h-1.094a3.531,3.531,0,0,1-3.527-3.527V55.287a3.531,3.531,0,0,1,3.527-3.527h1.094a3.531,3.531,0,0,1,3.527,3.527ZM727.413,41.95a26.953,26.953,0,0,0-20.263-.264V29.88h21.427v12.6q-.574-.276-1.164-.525M702.019,24.3a4.079,4.079,0,0,1,4.074-4.074H729.03a4.074,4.074,0,0,1,0,8.148H706.094a4.079,4.079,0,0,1-4.074-4.074M681.8,77.262V56.136h10.457l-.046.108a26.946,26.946,0,0,0,0,20.911l.046.108ZM716.958,92.05A25.351,25.351,0,1,1,742.309,66.7,25.379,25.379,0,0,1,716.958,92.05m35.159-14.788H741.661l.046-.108a26.946,26.946,0,0,0,0-20.911l-.046-.108h10.457Zm9.7.547a3.531,3.531,0,0,1-3.527,3.527h-1.094a3.531,3.531,0,0,1-3.527-3.527V55.287a3.531,3.531,0,0,1,3.527-3.527h1.094a3.531,3.531,0,0,1,3.527,3.527Z" transform="translate(-670.495 0.098)" stroke="#000" stroke-width="0.2"/>
</svg>
