<svg xmlns="http://www.w3.org/2000/svg" width="109.588" height="93.914" viewBox="0 0 109.588 93.914">
  <path id="Path_17280" data-name="Path 17280" d="M108.812,87.893H95.2v-18.7a.775.775,0,0,0-.775-.775H86.785V45.142l3.288,1.066a2.865,2.865,0,0,0,3.747-2.84l-.057-1.444a2.876,2.876,0,0,0-1.981-2.612l-2.63-.851L32.827,20.244l.1-.17a5.611,5.611,0,0,0,.726-2.441l.942-16.016A1.525,1.525,0,0,0,32.369.172L31.046.855a6.514,6.514,0,0,0-2.3,1.978c-4.6,6.406-8.225,14.511-10.777,24.088a105.971,105.971,0,0,0-3.045,16.739,1.5,1.5,0,0,0,.412,1.19L13.372,78.667H9.085a.775.775,0,0,0,0,1.551h1.386v7.675H.775A.775.775,0,0,0,0,88.669v4.469a.775.775,0,0,0,.775.775H108.812a.775.775,0,0,0,.775-.775V88.669a.775.775,0,0,0-.775-.775m-15.165,0H78.372V69.969H93.648ZM59,41.274l1.687,9.414-7.532-9.414Zm-5.28-1.551V33.5a.838.838,0,0,1,.837-.837h2.421a.837.837,0,0,1,.836.837v6.226ZM48.946,65.839,61.465,55.032,63.4,65.839Zm14.734,1.551,1.894,10.566L49.457,67.389Zm-3.3-14.608H50.127L52,42.317ZM59.9,54.332,48.01,64.6l1.84-10.266ZM64.18,78.9H45.447l1.97-10.991Zm-1.756,1.551-18.473,6.8,1.218-6.8Zm3.651.309,1.279,7.137H46.68ZM62.752,53.423v-.007L60.411,40.362l0-.008c0-.017-.007-.033-.011-.049s0-.018-.007-.027-.01-.03-.015-.045-.007-.019-.01-.028-.011-.025-.017-.038-.01-.022-.015-.032l-.018-.03c-.007-.012-.014-.024-.021-.035l-.019-.026-.026-.034-.022-.025-.028-.03-.027-.026-.027-.024-.035-.027-.024-.018-.041-.026-.022-.013-.044-.022-.023-.011-.043-.016-.029-.01-.038-.011-.036-.009-.033-.006-.044-.007-.03,0-.048,0h-.292V36.25l25.87,8.39V68.419H77.6a.775.775,0,0,0-.775.775v18.7H68.929ZM88.673,39.937l2.63.851a1.32,1.32,0,0,1,.909,1.2l.057,1.444a1.314,1.314,0,0,1-1.718,1.3L59.364,34.62V33.5a2.39,2.39,0,0,0-2.387-2.387H54.556a2.389,2.389,0,0,0-2.107,1.267l-22.4-7.265,2-3.492ZM30.008,3.738a4.957,4.957,0,0,1,1.749-1.5l1.284-.662L32.1,17.542a4.051,4.051,0,0,1-.524,1.763L18.3,42.548a1.846,1.846,0,0,1-.854.774l-.966.432c.543-5.783,3.109-25.5,13.533-40.017M16.868,45.261a1.551,1.551,0,0,0,.194-.07l1.013-.453a3.387,3.387,0,0,0,1.567-1.42l9.617-16.83,22.91,7.429v5.807H51.5l-.028,0h-.014l-.033,0-.028,0-.015,0-.029.007-.029.008-.016,0-.025.009-.03.011-.016.007-.023.011-.029.014-.015.008-.024.014-.027.016-.012.008-.027.02-.019.014,0,0-.009.007-.028.025-.021.02,0,.005-.026.028-.024.027-.023.031-.022.031c-.007.01-.013.021-.019.031s-.014.022-.02.034-.01.022-.016.032-.012.024-.017.037-.007.02-.011.03-.011.029-.015.044,0,.019-.007.028,0,.018-.007.027l0,.007,0,.014,0,.008L46.1,66.464l0,.022L43.761,79.513l0,.01-1.5,8.37H17.591V80.218h1.531a.775.775,0,0,0,0-1.551h-4.2ZM12.021,80.218h4.019v7.675H12.021Zm96.016,12.145H1.551V89.444H108.037Z" transform="translate(0 0)"/>
</svg>
