<svg xmlns="http://www.w3.org/2000/svg" width="85.893" height="94.414" viewBox="0 0 85.893 94.414">
  <path id="Path_17284" data-name="Path 17284" d="M84.247,85.182H80.3v-3a2.534,2.534,0,0,0-2.531-2.532h-.214V3.432A3.436,3.436,0,0,0,74.119,0H34.667a3.436,3.436,0,0,0-3.433,3.433V9.026H28.567a2.534,2.534,0,0,0-2.532,2.531v3.714C15.462,18.6,9.629,27.262,8.2,29.632H7.628A2.535,2.535,0,0,0,5.1,32.164V85.182H1.145A1.146,1.146,0,0,0,0,86.328v6.44a1.146,1.146,0,0,0,1.145,1.145h83.1a1.146,1.146,0,0,0,1.145-1.145v-6.44a1.146,1.146,0,0,0-1.145-1.145m-6.241-3v3H70.222v-3a.241.241,0,0,1,.242-.242h1.352c.005,0,.009,0,.015,0s.009,0,.015,0h4.547c.005,0,.009,0,.015,0s.009,0,.015,0h1.345a.241.241,0,0,1,.241.242m-13.781,3V32.164a2.534,2.534,0,0,0-2.531-2.532h-.572c-1.427-2.37-7.262-11.035-17.835-14.36V11.558a2.534,2.534,0,0,0-2.531-2.531H38.1V6.866H70.685v72.78h-.221a2.535,2.535,0,0,0-2.532,2.532v3Zm-30.021,0V31.922h27.49a.241.241,0,0,1,.241.242V85.182Zm-6.881-55.55H23.569V28.045A1.546,1.546,0,0,1,25.114,26.5h.666a1.546,1.546,0,0,1,1.544,1.544Zm4.59,5.657H23.569V31.923h8.345Zm0,22.178H23.569V54.222h8.345Zm-8.345-8.8h8.345v3.263H23.569ZM31.914,63H23.569V59.758h8.345Zm0,5.553H23.569V65.294h8.345Zm0-22.179H23.569V43.132h8.345ZM23.569,70.847h8.345v3.245H23.569Zm8.345-30.006H23.569V37.58h8.345ZM23.569,76.383h8.345v3.263H23.569Zm0,5.553h8.345v3.246H23.569Zm14.391-52.3H34.2V28.045A1.539,1.539,0,0,1,35.735,26.5h.68a1.546,1.546,0,0,1,1.545,1.544Zm-4.435-26.2A1.13,1.13,0,0,1,34.667,2.29H74.119a1.143,1.143,0,0,1,1.142,1.142V79.646H72.976V5.72A1.146,1.146,0,0,0,71.83,4.575H36.956A1.146,1.146,0,0,0,35.81,5.72V9.026H33.525Zm-5.2,8.126a.241.241,0,0,1,.242-.241H40.755a.241.241,0,0,1,.241.241v3.089a29.367,29.367,0,0,0-12.671,0Zm6.336,4.689c13.3,0,21.086,9.464,23.743,13.386H40.251V28.045a3.84,3.84,0,0,0-3.836-3.835h-.68a3.832,3.832,0,0,0-3.821,3.835v1.587h-2.3V28.045a3.839,3.839,0,0,0-3.835-3.835h-.666a3.84,3.84,0,0,0-3.836,3.835v1.587H10.919c2.657-3.921,10.445-13.386,23.742-13.386M7.386,32.164a.242.242,0,0,1,.242-.242h13.65v53.26H7.386ZM83.1,91.622H2.291V87.473H83.1Z" transform="translate(0.25 0.251)" stroke="#e0e0e0" stroke-width="0.5"/>
</svg>
