<svg xmlns="http://www.w3.org/2000/svg" width="38.662" height="38.664" viewBox="0 0 38.662 38.664">
  <g id="Group_125" data-name="Group 125" transform="translate(-1654.693 -10170.25)">
    <g id="Group_12" data-name="Group 12" transform="translate(1655.443 10171)">
      <path id="Path_23" data-name="Path 23" d="M458.185,141.057c4.961,0,5.549.02,7.508.109a10.264,10.264,0,0,1,3.451.639,6.155,6.155,0,0,1,3.526,3.526,10.3,10.3,0,0,1,.641,3.451c.089,1.959.109,2.547.109,7.508s-.02,5.551-.109,7.51a10.287,10.287,0,0,1-.641,3.449,6.151,6.151,0,0,1-3.526,3.528,10.262,10.262,0,0,1-3.451.639c-1.959.089-2.547.109-7.508.109s-5.549-.02-7.508-.109a10.262,10.262,0,0,1-3.451-.639,6.151,6.151,0,0,1-3.526-3.528,10.284,10.284,0,0,1-.641-3.449c-.089-1.959-.107-2.547-.107-7.51s.018-5.549.107-7.508a10.3,10.3,0,0,1,.641-3.451,6.155,6.155,0,0,1,3.526-3.526,10.264,10.264,0,0,1,3.451-.639c1.959-.089,2.547-.109,7.508-.109m0-3.348c-5.047,0-5.679.021-7.661.112a13.606,13.606,0,0,0-4.511.864,9.489,9.489,0,0,0-5.433,5.435,13.6,13.6,0,0,0-.864,4.509c-.091,1.982-.112,2.616-.112,7.661s.021,5.681.112,7.661a13.6,13.6,0,0,0,.864,4.511,9.489,9.489,0,0,0,5.433,5.435,13.652,13.652,0,0,0,4.511.864c1.982.091,2.614.112,7.661.112s5.679-.021,7.661-.112a13.652,13.652,0,0,0,4.511-.864,9.5,9.5,0,0,0,5.435-5.435,13.643,13.643,0,0,0,.864-4.511c.089-1.98.11-2.614.11-7.661s-.021-5.679-.11-7.661a13.641,13.641,0,0,0-.864-4.509,9.5,9.5,0,0,0-5.435-5.435,13.606,13.606,0,0,0-4.511-.864c-1.982-.091-2.614-.112-7.661-.112" transform="translate(-439.604 -137.709)" fill="#fff" stroke="#000" stroke-width="1.5"/>
      <path id="Path_24" data-name="Path 24" d="M454.222,142.785a9.543,9.543,0,1,0,9.542,9.542,9.542,9.542,0,0,0-9.542-9.542m0,15.737a6.195,6.195,0,1,1,6.194-6.2,6.195,6.195,0,0,1-6.194,6.2" transform="translate(-435.641 -133.746)" fill="#fff" stroke="#000" stroke-width="1.5"/>
      <path id="Path_25" data-name="Path 25" d="M458.815,143.551a2.23,2.23,0,1,1-2.23-2.23,2.23,2.23,0,0,1,2.23,2.23" transform="translate(-428.085 -134.889)" fill="#fff"/>
    </g>
  </g>
</svg>
