<svg id="Group_39351" data-name="Group 39351" xmlns="http://www.w3.org/2000/svg" width="37.164" height="37.164" viewBox="0 0 37.164 37.164">
  <g id="Group_91" data-name="Group 91">
    <g id="Rectangle_53" data-name="Rectangle 53" fill="none" stroke="#fff" stroke-width="1.6">
      <rect width="37.164" height="37.164" rx="18.582" stroke="none"/>
      <rect x="0.8" y="0.8" width="35.564" height="35.564" rx="17.782" fill="none"/>
    </g>
  </g>
  <path id="Path_46" data-name="Path 46" d="M7.746,7.635c.063,0,.115-.01.167-.01.923,0,1.847,0,2.77,0,.146,0,.189.044.186.189-.01.344,0,.689,0,1.033v.184l.039.011a.572.572,0,0,0,.082-.1,3.281,3.281,0,0,1,2.438-1.533,4.84,4.84,0,0,1,2.2.189,2.944,2.944,0,0,1,1.952,2.021,7.384,7.384,0,0,1,.333,2.282c.013,2.029.01,4.057.011,6.085,0,.04,0,.081-.01.137-.061,0-.116.013-.173.013-.964,0-1.927,0-2.893,0-.163,0-.189-.057-.189-.2,0-1.748.01-3.5,0-5.244a6.343,6.343,0,0,0-.125-1.2,1.415,1.415,0,0,0-1.494-1.253,1.729,1.729,0,0,0-1.549.608,2.153,2.153,0,0,0-.432,1.151c-.034.354-.053.711-.055,1.067-.006,1.607,0,3.215,0,4.822v.233H7.746Z" transform="translate(8.546 8.055)" fill="#fff"/>
  <rect id="Rectangle_22" data-name="Rectangle 22" width="3.239" height="10.486" transform="translate(10.97 15.699)" fill="#fff"/>
  <path id="Path_47" data-name="Path 47" d="M6.176,4.294a1.889,1.889,0,1,1-1.89,1.879,1.883,1.883,0,0,1,1.89-1.879" transform="translate(6.409 6.164)" fill="#fff"/>
</svg>
